<?xml version="1.0" encoding="utf-8"?>
<!-- Generator: Adobe Illustrator 26.0.3, SVG Export Plug-In . SVG Version: 6.00 Build 0)  -->
<svg version="1.1" id="Calque_1" xmlns="http://www.w3.org/2000/svg" xmlns:xlink="http://www.w3.org/1999/xlink" x="0px" y="0px"
	 viewBox="0 0 741.1 1250.8" style="enable-background:new 0 0 741.1 1250.8;" xml:space="preserve">
<style type="text/css">
	.st0{fill:#17589F;}
</style>
<path class="st0" d="M112.4,600.5c-7.2,6.5-14.7,12.6-21.6,19.5c-24.7,24.8-22.1,57.1,7.3,76.1c12.3,7.9,26.6,13.3,40.7,17.7
	c60.1,18.6,120.6,36.1,180.8,54.6c78.2,24,156.3,48.4,234.3,73.2c47,14.9,88.4,39.3,121.1,76.8c22.7,26.1,37.5,56.5,42.4,90.6
	c6.7,47,3.2,93-19.3,136.1c-18.9,36.1-46.5,63.6-81.3,84.2c-2.1,1.2-4.3,2.2-6.5,3.2c-0.4,0.2-1,0-0.2,0
	c12.7-10.2,26.8-20.4,39.6-32.1c10.2-9.4,17.2-21.3,17.9-35.9c1.3-26.9-13.8-44.2-35.9-54.4c-21.1-9.7-43.9-16.1-66.2-23
	c-62.2-19.1-124.6-37.6-186.9-56.6c-62.2-19-124.5-38.1-186.5-57.9c-43.6-14-84.1-34.3-116.6-67.6c-30.9-31.7-49.5-69.3-54.2-113.9
	c-5.5-52.3,5.4-99.8,36.8-142.2C72.7,628.8,91.1,612.8,112.4,600.5z"/>
<path class="st0" d="M370.6,624.6C200.4,625.1,60.1,489.2,59.9,319C59.7,147.3,200.2,12.2,370.1,12c171.2-0.2,310.5,138.8,310.2,307
	C679.9,487,540.6,624.9,370.6,624.6z M440.9,317.7c-0.1-38.9-30.8-69.3-70.2-69.3c-39.2,0-70,30.5-70.3,69.4
	c-0.3,39,29.6,70,71.3,70.3C410.7,388.2,440.9,357,440.9,317.7z"/>
</svg>
